<svg width="21" height="20" viewBox="0 0 21 20" fill="none" xmlns="http://www.w3.org/2000/svg">
<path fill-rule="evenodd" clip-rule="evenodd" d="M10.666 18.3337C15.2683 18.3337 18.9993 14.6027 18.9993 10.0003C18.9993 5.39795 15.2683 1.66699 10.666 1.66699C6.0636 1.66699 2.33264 5.39795 2.33264 10.0003C2.33264 14.6027 6.0636 18.3337 10.666 18.3337ZM14.5275 8.65356C14.9343 8.24676 14.9343 7.58722 14.5275 7.18042C14.1207 6.77363 13.4612 6.77363 13.0544 7.18042L9.62431 10.6105L8.27754 9.26375C7.87075 8.85696 7.2112 8.85696 6.8044 9.26375C6.39761 9.67055 6.39761 10.3301 6.8044 10.7369L8.88774 12.8202C9.29453 13.227 9.95408 13.227 10.3609 12.8202L14.5275 8.65356Z" fill="#2270B1"/>
</svg>
